<?xml version="1.0" encoding="UTF-8"?>
<!-- Generator: visioncortex VTracer 1.0.0-alpha.4 -->
<svg version="1.1" xmlns="http://www.w3.org/2000/svg" width="1254" height="1254">
<g fill="#000000">
<path d="M863,909c-51.499,48.201-119.982,78.715-189.619,87.966c-341.143,45.322-541.956-379.453-286.958-613.163c195.739-179.399,509.651-90.36,581.951,165.33c16.403,58.008,18.336,119.333,4.074,177.972C955.498,796.8,916.554,861.249,863,909ZM525.974,361.508C328.841,436.35,260.182,682.245,401.779,842.768c36.676,41.579,83.378,72.543,136.446,89.132c60.742,18.988,125.759,17.967,185.824-2.993c61.476-21.453,115.75-63.52,151.794-117.77c159.222-239.648-78.113-545.329-349.869-449.629Z"/>
<path d="M476.246,610.398c-30.513-58.729,53.951-106.094,86.573-49.538c31.353,54.356-51.831,105.637-86.573,49.538Z"/>
<path d="M700.996,622.707c-47.312-44.278,16.68-116.664,64.581-75.574c49.233,42.234-10.776,116.645-64.581,75.574Z"/>
<path d="M451,715c6.638-15.941,24.277-23.683,40.152-15.46c12.128,6.281,19.836,28.248,28.114,39.334c27.575,36.928,68.295,55.227,114.181,53.286c41.469-1.753,76.855-22.346,101.29-55.523c8.437-11.456,15.905-32.113,29.069-38.092c17.358-7.884,40.068,4.695,39.416,24.485c-.688,20.86-22.252,46.999-35.678,62.003c-80.023,89.433-227.459,80.628-296.608-17.618C460.749,752.941,446.576,733.587,451,715Z"/>
</g>
</svg>
